<?xml version="1.0" standalone="yes"?>

<svg version="1.1" viewBox="0.0 0.0 1054.0 688.0" fill="none" stroke="none" stroke-linecap="square" stroke-miterlimit="10" xmlns="http://www.w3.org/2000/svg" xmlns:xlink="http://www.w3.org/1999/xlink"><clipPath id="p.0"><path d="m0 0l1054.0 0l0 688.0l-1054.0 0l0 -688.0z" clip-rule="nonzero"></path></clipPath><g clip-path="url(#p.0)"><path fill="#000000" d="m195.03911 189.97162l0 0c7.9681854 0 14.803116 5.68277 16.257614 13.51709l-8.295288 1.5400848l0 0c-0.71235657 -3.8369446 -4.0598297 -6.6201324 -7.962326 -6.6201324z" fill-rule="nonzero"></path><path fill="#000000" d="m182.36275 189.97162l33.07086 0l0 8.566925l-33.07086 0z" fill-rule="nonzero"></path><path fill="#000000" d="m323.18457 190.02917l44.472443 44.472443l-44.472443 44.472443l-44.472443 -44.472443z" fill-rule="nonzero"></path><path fill="#000000" d="m380.34656 247.19116l44.472443 44.472443l-44.472443 44.472443l-44.472443 -44.472443z" fill-rule="nonzero"></path><path fill="#000000" d="m266.02258 247.19116l44.472443 44.472443l-44.472443 44.472443l-44.472427 -44.472443z" fill-rule="nonzero"></path><path fill="#000000" d="m323.18457 304.35315l44.472443 44.472443l-44.472443 44.472443l-44.472443 -44.472443z" fill-rule="nonzero"></path><path fill="#000000" d="m401.11243 189.97168l5.5433044 5.5433044l-44.22046 44.220474l-5.5433044 -5.5433044z" fill-rule="nonzero"></path><path fill="#000000" d="m401.13824 190.03584l0 8.314957l-77.82678 0l0 -8.314957z" fill-rule="nonzero"></path><path fill="#000000" d="m203.02301 189.97162l63.02362 0l0 63.02362l-63.02362 0z" fill-rule="nonzero"></path><path fill="#000000" d="m361.72092 232.29182l-36.53543 -36.53543l74.078735 -1.0078735z" fill-rule="nonzero"></path><path fill="#000000" d="m195.03911 393.31296l0 0c7.9681854 0 14.803116 -5.68277 16.257614 -13.51709l-8.295288 -1.5400696l0 0c-0.71235657 3.836914 -4.0598297 6.620117 -7.962326 6.620117z" fill-rule="nonzero"></path><path fill="#000000" d="m182.36275 393.31296l33.07086 0l0 -8.566925l-33.07086 0z" fill-rule="nonzero"></path><path fill="#000000" d="m401.11243 393.3129l5.5433044 -5.5433044l-44.22046 -44.22046l-5.5433044 5.5433044z" fill-rule="nonzero"></path><path fill="#000000" d="m401.13824 393.24875l0 -8.314972l-77.82678 0l0 8.314972z" fill-rule="nonzero"></path><path fill="#000000" d="m203.02301 393.31296l63.02362 0l0 -63.02362l-63.02362 0z" fill-rule="nonzero"></path><path fill="#000000" d="m361.72092 350.99277l-36.53543 36.53543l74.078735 1.0078735z" fill-rule="nonzero"></path><path fill="#000000" d="m479.68515 147.86488l144.6614 144.66142l-143.811 143.811l-144.66144 -144.6614z" fill-rule="nonzero"></path><path fill="#000000" d="m203.02301 205.97162l63.02362 0l0 134.01575l-63.02362 0z" fill-rule="nonzero"></path></g></svg>

