<?xml version="1.0" standalone="yes"?>

<svg version="1.1" viewBox="0.0 0.0 860.0 216.0" fill="none" stroke="none" stroke-linecap="square" stroke-miterlimit="10" xmlns="http://www.w3.org/2000/svg" xmlns:xlink="http://www.w3.org/1999/xlink"><clipPath id="p.0"><path d="m0 0l860.0 0l0 216.0l-860.0 0l0 -216.0z" clip-rule="nonzero"></path></clipPath><g clip-path="url(#p.0)"><path fill="#000000" fill-opacity="0.0" d="m0 0l860.02625 0l0 216.60367l-860.02625 0z" fill-rule="nonzero"></path><path fill="#999999" d="m332.4488 103.384514l0 0c0 -45.269955 36.698547 -81.968506 81.968506 -81.968506l0 0c21.73941 0 42.58841 8.635942 57.96048 24.00802c15.372101 15.372074 24.008026 36.22109 24.008026 57.960484l0 0c0 45.26995 -36.698547 81.96851 -81.968506 81.96851l0 0c-45.26996 0 -81.968506 -36.698563 -81.968506 -81.96851z" fill-rule="nonzero"></path><path fill="#999999" d="m414.8251 185.35301l33.19684 -57.354324l33.19684 57.354324z" fill-rule="nonzero"></path><path fill="#ffffff" d="m353.34647 104.05939l0 0c0 -33.763298 27.342346 -61.13386 61.07086 -61.13386l0 0c16.196991 0 31.730621 6.4408684 43.183624 17.905693c11.453003 11.464825 17.887238 27.014462 17.887238 43.22817l0 0c0 33.76329 -27.342346 61.133865 -61.07086 61.133865l0 0c-33.728516 0 -61.07086 -27.370575 -61.07086 -61.133865z" fill-rule="nonzero"></path><path fill="#ffffff" d="m412.30823 164.9211l28.566925 -49.07087l28.566956 49.07087z" fill-rule="nonzero"></path><path fill="#ffffff" d="m370.04922 102.11108l0 0c0 -24.33532 19.713562 -44.062992 44.031494 -44.062992l0 0c11.677856 0 22.877441 4.642338 31.134949 12.90575c8.257507 8.263412 12.896545 19.471008 12.896545 31.157242l0 0c0 24.33532 -19.713593 44.062996 -44.031494 44.062996l0 0c-24.317932 0 -44.031494 -19.727676 -44.031494 -44.062996z" fill-rule="nonzero"></path><path fill="#ffffff" d="m409.82874 146.17407l24.141724 -41.763786l24.141754 41.763786z" fill-rule="nonzero"></path><path fill="#999999" d="m534.73254 106.21266l4.9379272 0l0 21.678017q0 5.6562576 -1.272644 8.983452q-1.2727051 3.3272095 -4.598572 5.4173737q-3.3173828 2.0816345 -8.71344 2.0816345q-5.243347 0 -8.577759 -1.8171692q-3.3343506 -1.8171539 -4.759735 -5.2552643q-1.425354 -3.4466553 -1.425354 -9.410027l0 -21.678017l4.9378967 0l0 21.652428q0 4.8884354 0.899353 7.208946q0.9078369 2.3119812 3.1052856 3.5660706q2.2059326 1.2541046 5.3875732 1.2541046q5.4470215 0 7.7632446 -2.482605q2.3162231 -2.482605 2.3162231 -9.546516l0 -21.652428zm38.02704 37.52063l14.330139 -37.52063l5.319702 0l15.271912 37.52063l-5.625183 0l-4.352478 -11.363678l-15.602783 0l-4.0979614 11.363678l-5.243347 0zm10.766663 -15.4075165l12.650269 0l-3.8943481 -10.391113q-1.7817383 -4.734871 -2.6471558 -7.7805405q-0.7126465 3.6087341 -2.0108032 7.1662827l-4.0979614 11.005371zm56.862366 15.4075165l0 -37.52063l4.9379272 0l0 33.092896l18.377197 0l0 4.4277344l-23.315125 0zm59.00049 0l0 -37.52063l4.937866 0l0 37.52063l-4.937866 0zm52.1026 0l0 -33.092888l-12.293884 0l0 -4.427742l29.5766 0l0 4.427742l-12.344788 0l0 33.092888l-4.9379272 0zm61.825745 0l0 -15.893799l-14.3810425 -21.626831l6.006958 0l7.355957 11.312492q2.036255 3.173645 3.7925415 6.34729q1.6798706 -2.9432983 4.07251 -6.6288223l7.2286987 -11.03096l5.7523804 0l-14.890076 21.626831l0 15.893799l-4.9379272 0z" fill-rule="nonzero"></path><path fill="#999999" d="m111.45622 107.161995l4.864525 0l0 21.231987q0 5.539871 -1.253746 8.7986145q-1.2537384 3.2587433 -4.5301895 5.305908q-3.2680893 2.038803 -8.583954 2.038803q-5.1654205 0 -8.450218 -1.7797699q-3.2848053 -1.7797852 -4.689003 -5.147156q-1.4041901 -3.3757172 -1.4041901 -9.2164l0 -21.231987l4.864525 0l0 21.206917q0 4.787857 0.8859787 7.060623q0.8943329 2.2644043 3.0591278 3.4927063q2.173149 1.228302 5.3075104 1.228302q5.3660126 0 7.647827 -2.4315338q2.281807 -2.4315186 2.281807 -9.350098l0 -21.206917zm40.019455 18.850594q0 -9.149559 4.914673 -14.321777q4.9146576 -5.180565 12.687866 -5.180565q5.0901947 0 9.177399 2.4315262q4.0871887 2.4315262 6.2269135 6.784874q2.1480713 4.3449936 2.1480713 9.859802q0 5.590004 -2.2567291 10.001839q-2.2567291 4.41185 -6.3940887 6.684616q-4.1373444 2.2644043 -8.926636 2.2644043q-5.1904907 0 -9.277695 -2.5067291q-4.087204 -2.5067291 -6.1934814 -6.8433685q-2.1062927 -4.3366394 -2.1062927 -9.174622zm5.014969 0.07520294q0 6.64283 3.568985 10.469765q3.5773468 3.8185883 8.96843 3.8185883q5.491394 0 9.035309 -3.8603668q3.5522614 -3.8603516 3.5522614 -10.954399q0 -4.4870453 -1.5211945 -7.8293457q-1.5128479 -3.3506622 -4.4382477 -5.1889343q-2.917038 -1.8466187 -6.552902 -1.8466187q-5.1654205 0 -8.893204 3.5512009q-3.7194366 3.542839 -3.7194366 11.840111zm74.29677 17.822838l0 -32.411995l-12.11116 0l0 -4.3366394l29.136978 0l0 4.3366394l-12.161301 0l0 32.411995l-4.864517 0zm50.651184 0l0 -36.748634l26.579315 0l0 4.3366394l-21.714813 0l0 11.255211l20.335724 0l0 4.311569l-20.335724 0l0 12.508575l22.567383 0l0 4.3366394l-27.431885 0z" fill-rule="nonzero"></path><path fill="#999999" d="m38.00186 144.50658l0 0c-9.173973 0.018218994 -17.09188 -6.3845673 -18.936085 -15.312592c-1.844204 -8.928024 2.8954906 -17.91137 11.335224 -21.48413c8.439732 -3.5727692 18.24467 -0.74655914 23.44902 6.7590256c5.2043457 7.5055847 4.368332 17.614143 -1.9993744 24.175133l-3.4003105 -3.2571716l0 0c4.819805 -4.945053 5.459076 -12.571434 1.528717 -18.237335c-3.930359 -5.665901 -11.342548 -7.8031845 -17.725128 -5.110985c-6.3825817 2.6921997 -9.969055 9.468765 -8.576511 16.205132c1.3925438 6.7363586 7.3786945 11.568115 14.314972 11.554398z" fill-rule="nonzero"></path><path fill="#999999" d="m37.62694 139.8143l13.204098 0l2.7938423 4.6262665l-16.187218 0.062164307z" fill-rule="nonzero"></path><path fill="#999999" d="m48.501312 135.37534l2.3497963 4.2493286l1.6509895 -1.6876526z" fill-rule="nonzero"></path></g></svg>

